<svg width="600" height="250" viewBox="0 0 600 250" xmlns="http://www.w3.org/2000/svg">
    <style>
        .ship-hull { fill: none; stroke: black; stroke-width: 1.8; stroke-linejoin: round; }
        .detail { fill: none; stroke: black; stroke-width: 1.2; stroke-linecap: round; }
        .turret { fill: #eee; stroke: black; stroke-width: 1.2; }
    </style>

    <g transform="translate(2, 2)">
        <path class="ship-hull" d="M 0,40 L 200,40 L 208,18 L 0,18 Z" />
        <path class="detail" d="M 65,18 L 65,5 L 90,5 L 100,18" /> <rect class="detail" x="105" y="0" width="10" height="18" /> <path class="detail" d="M 125,18 L 125,8 L 150,8 L 150,18" /> <path class="turret" d="M 15,18 L 15,10 L 35,10 L 35,18 Z" /> <line class="detail" x1="35" y1="13" x2="55" y2="13" /> <line class="detail" x1="35" y1="15" x2="55" y2="15" />
        <path class="turret" d="M 38,10 L 38,2 L 58,2 L 58,10 Z" /> <line class="detail" x1="58" y1="5" x2="78" y2="5" /> <line class="detail" x1="58" y1="7" x2="78" y2="7" />
        <path class="turret" d="M 160,18 L 160,10 L 180,10 L 180,18 Z" /> <line class="detail" x1="160" y1="13" x2="140" y2="13" /> <line class="detail" x1="160" y1="15" x2="140" y2="15" />
        <line class="detail" x1="5" y1="23" x2="195" y2="23" />
        <circle cx="20" cy="30" r="1.5" /> <circle cx="60" cy="30" r="1.5" /> <circle cx="100" cy="30" r="1.5" /> <circle cx="140" cy="30" r="1.5" /> <circle cx="180" cy="30" r="1.5" />
    </g>
</svg>
