<svg width="600" height="250" viewBox="0 0 600 250" xmlns="http://www.w3.org/2000/svg">
    <style>
        .ship-hull { fill: none; stroke: black; stroke-width: 1.8; stroke-linejoin: round; }
        .detail { fill: none; stroke: black; stroke-width: 1.2; stroke-linecap: round; }
        .turret { fill: #eee; stroke: black; stroke-width: 1.2; }
    </style>

    <g transform="translate(42, 2) rotate(90)">
        <path class="ship-hull" d="M 0,40 L 120,40 L 126,20 L 0,20 Z" />
        <path class="detail" d="M 35,20 L 35,8 L 55,8 L 60,20" /> <path class="detail" d="M 75,20 L 75,12 L 95,12 L 95,20" /> <rect class="detail" x="62" y="5" width="8" height="15" /> <path class="turret" d="M 10,20 L 10,14 L 22,14 L 22,20 Z" /> <line class="detail" x1="22" y1="16" x2="32" y2="16" /> <path class="turret" d="M 12,14 L 12,8 L 20,8 L 20,14 Z" /> <line class="detail" x1="20" y1="10" x2="30" y2="10" /> <path class="turret" d="M 100,20 L 100,14 L 112,14 L 112,20 Z" /> <line class="detail" x1="100" y1="16" x2="90" y2="16" /> <circle cx="10" cy="30" r="1" /> <circle cx="30" cy="30" r="1" /> <circle cx="50" cy="30" r="1" />
    </g>
</svg>
